<?xml version="1.0" standalone="no"?>
<!DOCTYPE svg PUBLIC "-//W3C//DTD SVG 20010904//EN"
 "http://www.w3.org/TR/2001/REC-SVG-20010904/DTD/svg10.dtd">
<svg version="1.0" xmlns="http://www.w3.org/2000/svg"
 width="512.000000pt" height="512.000000pt" viewBox="0 0 512.000000 512.000000"
 preserveAspectRatio="xMidYMid meet">
<metadata>
Created by potrace 1.14, written by Peter Selinger 2001-2017
</metadata>
<g transform="translate(0.000000,512.000000) scale(0.100000,-0.100000)"
fill="#000000" stroke="none">
<path d="M4082 4515 c-18 -23 -20 -41 -21 -179 0 -140 1 -156 20 -180 24 -31
58 -33 90 -7 23 19 24 25 27 180 2 160 2 162 -22 186 -32 32 -69 32 -94 0z"/>
<path d="M4520 4332 c-8 -2 -68 -57 -132 -120 -99 -98 -118 -122 -118 -147 0
-39 9 -51 43 -64 20 -8 34 -8 48 0 40 21 245 236 246 259 4 46 -44 85 -87 72z"/>
<path d="M3839 4055 c-29 -11 -61 -36 -128 -97 -26 -24 -76 -69 -112 -100 -35
-31 -79 -70 -97 -86 -35 -32 -56 -38 -162 -47 -143 -14 -284 -79 -415 -195
-22 -19 -74 -64 -115 -100 -159 -138 -233 -221 -259 -288 -46 -119 -34 -255
33 -378 l34 -61 -25 -109 c-19 -79 -32 -115 -49 -129 -12 -12 -49 -45 -81 -75
-56 -52 -205 -187 -243 -220 -9 -8 -46 -40 -80 -70 -35 -30 -68 -60 -74 -65
-6 -6 -63 -54 -126 -106 -256 -214 -363 -373 -416 -614 -3 -16 -8 -88 -9 -160
l-3 -130 -63 -23 c-94 -34 -200 -50 -319 -48 -137 3 -218 25 -370 98 -105 51
-133 60 -180 60 -157 2 -255 -146 -174 -263 58 -83 291 -187 504 -224 172 -30
489 -14 640 31 47 14 60 8 60 -28 0 -10 11 -24 24 -33 20 -14 138 -15 1042
-13 972 3 1021 4 1054 22 98 52 144 138 120 226 -22 80 -108 147 -204 157 -55
6 -55 6 -51 37 3 17 7 58 10 91 3 33 9 96 14 140 6 44 12 107 16 140 3 33 8
83 11 110 3 29 32 110 69 195 35 80 75 173 89 207 14 35 37 87 51 115 13 29
49 112 80 183 66 151 63 112 41 520 -3 61 -9 158 -12 217 l-5 107 79 103 c44
57 89 121 100 144 68 134 48 415 -43 600 -38 78 -119 163 -157 165 -13 1 -35
2 -49 3 -14 1 -37 -3 -50 -9z m100 -162 c83 -101 131 -374 88 -501 -11 -34
-44 -89 -85 -141 -57 -73 -71 -86 -95 -86 -45 1 -87 -30 -87 -64 0 -24 26 -68
60 -101 3 -3 6 -21 7 -40 10 -211 15 -312 18 -345 2 -22 4 -89 5 -150 l3 -110
-167 -380 c-92 -209 -169 -396 -172 -415 -7 -62 -14 -134 -19 -182 -3 -27 -7
-67 -9 -90 -3 -24 -8 -74 -11 -113 -4 -38 -9 -72 -10 -75 -2 -3 -6 -50 -9
-105 -9 -134 -6 -137 117 -145 50 -3 102 -11 114 -18 52 -29 31 -96 -34 -108
-46 -9 -271 -11 -284 -3 -6 3 -6 16 0 32 15 40 7 138 -14 172 -31 49 -68 86
-110 108 -39 21 -86 25 -316 27 l-47 0 10 43 c25 106 -10 280 -77 388 -68 108
-220 215 -340 237 -27 6 -41 11 -30 12 11 1 27 3 35 5 8 2 28 6 44 9 101 19
219 118 270 225 29 61 31 74 31 171 0 94 -3 111 -28 164 -15 33 -43 79 -63
102 -34 42 -34 44 -23 89 7 26 15 43 18 37 3 -5 25 -23 49 -40 112 -80 293
-100 430 -46 94 37 171 104 209 182 27 55 28 64 31 227 1 94 0 180 -3 192 -8
32 -57 56 -89 43 -41 -15 -46 -39 -46 -210 0 -142 -2 -165 -20 -201 -43 -83
-159 -136 -277 -125 -118 11 -193 58 -240 151 -14 28 -38 68 -54 91 -65 95
-77 227 -28 313 23 42 297 294 394 363 99 70 183 100 315 113 106 9 127 15
162 46 89 80 163 145 177 159 47 44 153 130 161 130 5 0 22 -16 39 -37z
m-1270 -1629 c49 -104 22 -241 -64 -317 -11 -10 -45 -30 -75 -44 -93 -43 -208
-24 -287 46 l-33 28 38 34 c20 19 77 70 127 114 49 44 99 89 110 100 113 107
127 116 146 99 10 -9 27 -36 38 -60z m-499 -434 c33 -30 143 -80 176 -80 43 0
24 -7 -36 -13 -77 -9 -139 -29 -212 -70 -125 -70 -176 -141 -136 -192 30 -39
67 -33 130 21 68 58 112 81 190 97 97 20 173 10 256 -33 72 -37 111 -71 156
-139 86 -128 91 -287 14 -433 -35 -65 -33 -98 8 -124 23 -16 28 -16 59 -1 18
9 36 25 40 37 7 21 11 21 192 18 l185 -3 24 -30 c35 -44 33 -98 -5 -136 -16
-16 -35 -29 -43 -30 -61 -4 -1422 -3 -1428 1 -4 3 -13 22 -19 43 -7 21 -24 45
-37 54 -23 15 -30 14 -112 -10 -169 -50 -283 -65 -462 -62 -127 3 -171 9 -287
39 -100 26 -269 104 -300 138 -15 17 -15 20 -1 34 31 31 70 27 151 -16 296
-156 616 -166 924 -29 54 24 66 48 58 110 -4 27 -7 86 -7 131 1 246 104 439
342 639 30 26 69 58 85 72 33 28 26 31 95 -33z"/>
<path d="M3553 3508 c-45 -21 -47 -94 -4 -117 48 -26 101 4 101 57 0 47 -54
81 -97 60z"/>
<path d="M3384 2482 c-75 -25 -133 -100 -138 -178 -5 -66 13 -113 59 -159 92
-92 233 -79 310 28 63 88 39 216 -53 281 -33 23 -55 30 -99 32 -32 2 -67 0
-79 -4z m125 -173 c19 -55 -39 -106 -93 -81 -54 24 -40 111 19 122 37 7 62 -7
74 -41z"/>
<path d="M3069 1639 c-41 -44 -41 -100 2 -140 67 -63 169 -20 169 71 0 92
-108 136 -171 69z"/>
<path d="M2249 1190 c-90 -16 -159 -94 -164 -186 -11 -178 194 -284 330 -171
160 132 40 392 -166 357z m78 -146 c33 -21 32 -87 0 -109 -43 -27 -107 4 -107
53 0 54 62 86 107 56z"/>
<path d="M4372 3917 c-44 -20 -46 -94 -3 -116 11 -7 84 -11 174 -11 134 0 158
2 177 18 29 23 29 67 1 95 -20 20 -32 22 -175 22 -84 1 -163 -3 -174 -8z"/>
<path d="M2048 3621 c-26 -23 -32 -36 -32 -69 0 -79 74 -124 148 -91 24 11 56
62 56 89 0 7 -7 27 -15 45 -29 61 -104 73 -157 26z"/>
<path d="M1330 2992 c-29 -9 -50 -36 -50 -64 0 -21 13 -43 47 -79 l47 -50 -47
-46 c-55 -54 -64 -100 -25 -127 39 -27 69 -20 120 31 l48 47 48 -47 c57 -56
98 -63 130 -22 27 34 17 66 -38 121 l-44 44 48 49 c53 54 61 87 31 121 -31 35
-73 26 -125 -25 l-47 -46 -48 45 c-51 47 -70 56 -95 48z"/>
<path d="M4205 2265 c-97 -47 -139 -113 -139 -218 1 -77 12 -105 68 -164 90
-96 245 -96 335 -2 49 50 66 96 65 174 0 74 -11 100 -63 158 -63 70 -180 93
-266 52z m138 -127 c56 -29 75 -98 41 -147 -49 -69 -162 -50 -179 30 -19 87
63 157 138 117z"/>
</g>
</svg>
